<svg width="64" height="56" viewBox="0 0 64 56" fill="none" xmlns="http://www.w3.org/2000/svg">
<path d="M61.7978 38.4508L36.8986 27.3081C34.1997 26.0973 29.782 26.0973 27.083 27.3081L2.20052 38.4508C-0.733505 39.7598 -0.733505 41.9016 2.20052 43.2106L26.873 54.2551C29.6886 55.515 34.323 55.515 37.1387 54.2551L61.8112 43.2106C64.7318 41.9016 64.7318 39.7582 61.7978 38.4508Z" fill="#F05BA6" fill-opacity="0.85"/>
<path d="M61.7978 25.6508L36.8986 14.5081C34.1997 13.2973 29.782 13.2973 27.083 14.5081L2.20052 25.6508C-0.733505 26.9597 -0.733505 29.1016 2.20052 30.4105L26.873 41.4551C29.6886 42.7149 34.323 42.7149 37.1387 41.4551L61.8112 30.4105C64.7318 29.1016 64.7318 26.9581 61.7978 25.6508Z" fill="#9966FF" fill-opacity="0.85"/>
<path d="M61.7978 12.8508L36.8986 1.70815C34.1997 0.497347 29.782 0.497347 27.083 1.70815L2.20052 12.8508C-0.733505 14.1598 -0.733505 16.3016 2.20052 17.6106L26.873 28.6551C29.6886 29.915 34.323 29.915 37.1387 28.6551L61.8112 17.6106C64.7318 16.3016 64.7318 14.1582 61.7978 12.8508Z" fill="#F05BA6" fill-opacity="0.85"/>
</svg>
