<svg width="56" height="54" viewBox="0 0 56 54" fill="none" xmlns="http://www.w3.org/2000/svg">
<path d="M1.76842 0.400024H40.2316C41.2042 0.400024 42 1.25426 42 2.29833V28.8746C42 29.9187 41.2042 30.7729 40.2316 30.7729H20.2926L10.5221 39.1729C10.2126 39.4577 9.81474 39.6 9.41684 39.6C9.15158 39.6 8.88632 39.5526 8.66526 39.4102C8.04632 39.078 7.64842 38.4136 7.64842 37.7017V30.7729H1.76842C0.795789 30.7729 -2.98023e-08 29.9187 -2.98023e-08 28.8746V2.29833C-2.98023e-08 1.25426 0.795789 0.400024 1.76842 0.400024Z" fill="#9966FF" fill-opacity="0.85"/>
<path d="M54.2316 14.4H15.7684C14.7958 14.4 14 15.2543 14 16.2983V42.8746C14 43.9187 14.7958 44.7729 15.7684 44.7729H35.7074L45.4779 53.1729C45.7874 53.4577 46.1853 53.6 46.5832 53.6C46.8484 53.6 47.1137 53.5526 47.3347 53.4102C47.9537 53.078 48.3516 52.4136 48.3516 51.7017V44.7729H54.2316C55.2042 44.7729 56 43.9187 56 42.8746V16.2983C56 15.2543 55.2042 14.4 54.2316 14.4Z" fill="#F05BA6" fill-opacity="0.85"/>
</svg>
